<?xml version="1.0" standalone="no"?>
<!DOCTYPE svg PUBLIC "-//W3C//DTD SVG 20010904//EN"
 "http://www.w3.org/TR/2001/REC-SVG-20010904/DTD/svg10.dtd">
<svg version="1.0" xmlns="http://www.w3.org/2000/svg"
 width="180.000000pt" height="180.000000pt" viewBox="0 0 180.000000 180.000000"
 preserveAspectRatio="xMidYMid meet">

<g transform="translate(0.000000,180.000000) scale(0.100000,-0.100000)"
fill="#000000" stroke="none">
<path d="M368 1690 c-120 -22 -245 -115 -290 -217 -26 -59 -35 -183 -18 -254
55 -233 295 -453 594 -544 79 -24 101 -27 200 -23 97 3 118 7 164 32 65 33 81
30 51 -8 l-23 -29 37 7 c20 3 53 9 72 12 42 8 47 -9 8 -29 -25 -14 -24 -14 25
-9 41 3 52 1 52 -10 0 -8 -12 -19 -27 -25 -26 -10 -26 -11 -5 -12 12 -1 22 -5
22 -11 0 -11 -53 -40 -75 -40 -8 0 -15 -4 -15 -10 0 -5 9 -10 20 -10 32 0 23
-19 -12 -24 -18 -3 -63 -10 -99 -16 -134 -21 -327 -23 -469 -6 -74 9 -153 21
-175 26 -22 5 -41 7 -44 5 -7 -8 168 -173 248 -233 44 -33 117 -79 162 -101
131 -66 197 -56 359 52 196 131 430 365 563 566 31 47 55 87 53 89 -3 2 -40
-3 -83 -12 -173 -34 -375 -66 -496 -77 -137 -12 -470 -7 -522 8 -34 11 -36 26
-6 33 17 4 12 9 -25 24 -42 17 -45 21 -30 32 16 12 16 13 -3 24 -33 17 -25 30
20 30 36 0 40 2 29 15 -19 23 -7 28 37 16 21 -6 46 -11 56 -11 17 0 17 1 3 16
-37 36 -14 44 44 14 188 -96 650 30 872 238 67 63 92 112 85 171 -4 39 -12 52
-51 87 -25 23 -76 54 -113 70 -65 27 -76 28 -218 28 -147 0 -151 0 -227 -33
-45 -19 -99 -51 -127 -77 -27 -24 -53 -44 -58 -44 -5 0 -28 27 -51 59 -49 70
-136 140 -226 182 -53 25 -81 31 -153 34 -48 2 -109 0 -135 -5z"/>
</g>
</svg>
