<?xml version="1.0" standalone="no"?>
<!DOCTYPE svg PUBLIC "-//W3C//DTD SVG 20010904//EN"
 "http://www.w3.org/TR/2001/REC-SVG-20010904/DTD/svg10.dtd">
<svg version="1.0" xmlns="http://www.w3.org/2000/svg"
 width="180.000000pt" height="180.000000pt" viewBox="0 0 180.000000 180.000000"
 preserveAspectRatio="xMidYMid meet">

<g transform="translate(0.000000,180.000000) scale(0.100000,-0.100000)"
fill="#000000" stroke="none">
<path d="M1265 1650 c-255 -47 -600 -185 -795 -319 -183 -125 -323 -300 -385
-483 -24 -70 -29 -99 -28 -183 0 -120 19 -199 77 -308 91 -175 242 -282 454
-323 93 -18 156 -18 257 0 336 59 597 269 776 625 52 105 108 263 134 381 26
117 31 321 10 399 -35 137 -87 198 -185 220 -67 16 -203 12 -315 -9z m324 -65
c54 -32 74 -67 79 -136 6 -76 -10 -148 -53 -249 -131 -305 -472 -674 -736
-795 -226 -103 -499 -79 -652 55 -126 111 -135 295 -25 500 119 222 324 379
677 517 158 62 293 102 431 127 14 2 75 4 135 3 90 -2 116 -6 144 -22z"/>
<path d="M648 1221 c-72 -29 -112 -57 -167 -116 -65 -72 -93 -145 -92 -245 0
-141 36 -190 141 -198 142 -10 268 40 389 154 99 93 158 197 148 261 -7 46
-54 90 -136 131 -74 36 -210 42 -283 13z"/>
</g>
</svg>
